<svg xmlns="http://www.w3.org/2000/svg" xmlns:svg="http://www.w3.org/2000/svg" xmlns:xlink="http://www.w3.org/1999/xlink" id="svg8" width="160mm" height="160mm" version="1.1" viewBox="0 0 160 160"><metadata id="metadata67"/><defs id="defs2"><linearGradient id="linearGradient2827"><stop style="stop-color:#025;stop-opacity:1" id="stop2823" offset="0"/><stop style="stop-color:#025;stop-opacity:0" id="stop2825" offset="1"/></linearGradient><linearGradient id="linearGradient2831" x1="0" x2="162.043" y1="80.755" y2="80.755" gradientTransform="translate(109.53747,-5.2942142)" gradientUnits="userSpaceOnUse" xlink:href="#linearGradient2827"/></defs><g id="layer1" style="display:inline" transform="matrix(0.82437002,0,0,0.82437002,-7.3848443,-8.1654562)"><path style="fill:#025;stroke:none;stroke-width:.625348" id="path12" d="M 35.587501,69.766667 V 59.766664 h 70.000109 69.99991 v 10.000003 9.999997 H 105.58761 35.587501 Z"/><rect style="fill:#2a7fff;fill-rule:evenodd;stroke-width:.214311" id="rect22-2" width="32.244" height="20" x="71.506" y="106.646"/><rect style="fill:#2a7fff;fill-rule:evenodd;stroke-width:.214311" id="rect22-8-8" width="32.244" height="20" x="107.425" y="106.646"/><rect style="fill:#2a7fff;fill-rule:evenodd;stroke-width:.214311" id="rect22-8-5-8" width="32.244" height="20" x="143.343" y="106.646"/><rect style="fill:#2a7fff;fill-rule:evenodd;stroke-width:.214311" id="rect22-2-4" width="32.244" height="20" x="71.506" y="129.821"/><rect style="fill:#2a7fff;fill-rule:evenodd;stroke-width:.214311" id="rect22-8-8-3" width="32.244" height="20" x="107.425" y="129.821"/><rect style="fill:#2a7fff;fill-rule:evenodd;stroke-width:.214311" id="rect22-8-5-8-2" width="32.244" height="20" x="143.343" y="129.821"/><rect style="fill:#2a7fff;fill-rule:evenodd;stroke-width:.214311" id="rect22-2-7" width="32.244" height="20" x="35.588" y="106.646"/><rect style="fill:#2a7fff;fill-rule:evenodd;stroke-width:.214311" id="rect22-2-4-0" width="32.244" height="20" x="35.588" y="129.821"/><rect style="display:inline;fill:#2a7fff;fill-rule:evenodd;stroke-width:.214311" id="rect22-2-9" width="32.244" height="20" x="71.506" y="82.942"/><rect style="display:inline;fill:#2a7fff;fill-rule:evenodd;stroke-width:.214311" id="rect22-8-8-37" width="32.244" height="20" x="107.425" y="82.942"/><rect style="display:inline;fill:#2a7fff;fill-rule:evenodd;stroke-width:.214311" id="rect22-8-5-8-4" width="32.244" height="20" x="143.343" y="82.942"/><rect style="display:inline;fill:#2a7fff;fill-rule:evenodd;stroke-width:.214311" id="rect22-2-7-1" width="32.244" height="20" x="35.588" y="82.942"/></g><polygon id="polygon276" fill="#f6cc00" points="129.9 90.5 148.1 90.5 75.3 174.4 103.1 103.6 79.8 103.6 112.6 41.3 156.4 41.3" transform="matrix(0.90111335,0,0,0.82315986,-21.825638,-8.5965029)"/></svg>