<svg xmlns="http://www.w3.org/2000/svg" id="svg8" width="210mm" height="210mm" version="1.1" viewBox="0 0 210 210"><g id="layer1" style="display:inline"><path style="fill:#025;stroke:none;stroke-width:.625348" id="path12" d="M 35.587501,69.766667 V 59.766664 h 70.000109 69.99991 v 10.000003 9.999997 H 105.58761 35.587501 Z"/><rect style="fill:#2a7fff;fill-rule:evenodd;stroke-width:.214311" id="rect22-2" width="32.244" height="20" x="71.506" y="106.646"/><rect style="fill:#2a7fff;fill-rule:evenodd;stroke-width:.214311" id="rect22-8-8" width="32.244" height="20" x="107.425" y="106.646"/><rect style="fill:#2a7fff;fill-rule:evenodd;stroke-width:.214311" id="rect22-8-5-8" width="32.244" height="20" x="143.343" y="106.646"/><rect style="fill:#2a7fff;fill-rule:evenodd;stroke-width:.214311" id="rect22-2-4" width="32.244" height="20" x="71.506" y="129.821"/><rect style="fill:#2a7fff;fill-rule:evenodd;stroke-width:.214311" id="rect22-8-8-3" width="32.244" height="20" x="107.425" y="129.821"/><rect style="fill:#2a7fff;fill-rule:evenodd;stroke-width:.214311" id="rect22-8-5-8-2" width="32.244" height="20" x="143.343" y="129.821"/><rect style="fill:#2a7fff;fill-rule:evenodd;stroke-width:.214311" id="rect22-2-7" width="32.244" height="20" x="35.588" y="106.646"/><rect style="fill:#2a7fff;fill-rule:evenodd;stroke-width:.214311" id="rect22-2-4-0" width="32.244" height="20" x="35.588" y="129.821"/><rect style="display:inline;fill:#2a7fff;fill-rule:evenodd;stroke-width:.214311" id="rect22-2-9" width="32.244" height="20" x="71.506" y="82.942"/><rect style="display:inline;fill:#2a7fff;fill-rule:evenodd;stroke-width:.214311" id="rect22-8-8-37" width="32.244" height="20" x="107.425" y="82.942"/><rect style="display:inline;fill:#2a7fff;fill-rule:evenodd;stroke-width:.214311" id="rect22-8-5-8-4" width="32.244" height="20" x="143.343" y="82.942"/><rect style="display:inline;fill:#2a7fff;fill-rule:evenodd;stroke-width:.214311" id="rect22-2-7-1" width="32.244" height="20" x="35.588" y="82.942"/></g><polygon id="polygon276" fill="#f6cc00" points="75.3 174.4 103.1 103.6 79.8 103.6 112.6 41.3 156.4 41.3 129.9 90.5 148.1 90.5" transform="matrix(1.0930933,0,0,0.99853202,-17.517362,-0.52287941)"/></svg>