<svg xmlns="http://www.w3.org/2000/svg" xmlns:svg="http://www.w3.org/2000/svg" id="svg8" width="700mm" height="210mm" version="1.1" viewBox="0 0 700 210"><metadata id="metadata5"/><g id="layer1" style="display:inline"><path style="fill:#025;stroke:none;stroke-width:.625348" id="path12" d="M 279.87118,68.039845 V 58.039842 h 70.00011 69.99991 v 10.000003 9.999997 h -69.99991 -70.00011 z"/><rect style="fill:#2a7fff;fill-rule:evenodd;stroke-width:.214311" id="rect22-2" width="32.244" height="20" x="315.79" y="104.919"/><rect style="fill:#2a7fff;fill-rule:evenodd;stroke-width:.214311" id="rect22-8-8" width="32.244" height="20" x="351.708" y="104.919"/><rect style="fill:#2a7fff;fill-rule:evenodd;stroke-width:.214311" id="rect22-8-5-8" width="32.244" height="20" x="387.627" y="104.919"/><rect style="fill:#2a7fff;fill-rule:evenodd;stroke-width:.214311" id="rect22-2-4" width="32.244" height="20" x="315.79" y="128.094"/><rect style="fill:#2a7fff;fill-rule:evenodd;stroke-width:.214311" id="rect22-8-8-3" width="32.244" height="20" x="351.708" y="128.094"/><rect style="fill:#2a7fff;fill-rule:evenodd;stroke-width:.214311" id="rect22-8-5-8-2" width="32.244" height="20" x="387.627" y="128.094"/><rect style="fill:#2a7fff;fill-rule:evenodd;stroke-width:.214311" id="rect22-2-7" width="32.244" height="20" x="279.871" y="104.919"/><rect style="fill:#2a7fff;fill-rule:evenodd;stroke-width:.214311" id="rect22-2-4-0" width="32.244" height="20" x="279.871" y="128.094"/><rect style="display:inline;fill:#2a7fff;fill-rule:evenodd;stroke-width:.214311" id="rect22-2-9" width="32.244" height="20" x="315.79" y="81.215"/><rect style="display:inline;fill:#2a7fff;fill-rule:evenodd;stroke-width:.214311" id="rect22-8-8-37" width="32.244" height="20" x="351.708" y="81.215"/><rect style="display:inline;fill:#2a7fff;fill-rule:evenodd;stroke-width:.214311" id="rect22-8-5-8-4" width="32.244" height="20" x="387.627" y="81.215"/><rect style="display:inline;fill:#2a7fff;fill-rule:evenodd;stroke-width:.214311" id="rect22-2-7-1" width="32.244" height="20" x="279.871" y="81.215"/></g><polygon id="polygon276" fill="#f6cc00" points="112.6 41.3 156.4 41.3 129.9 90.5 148.1 90.5 75.3 174.4 103.1 103.6 79.8 103.6" transform="matrix(1.0930933,0,0,0.99853202,226.76632,-2.2497013)"/></svg>